<svg width="160" height="36" viewBox="0 0 160 36" fill="none" xmlns="http://www.w3.org/2000/svg">
<g clip-path="url(#clip0_3204_344)">
<path d="M155.347 17.3199H150.387H145.427C144.412 17.3199 143.586 16.5178 143.586 15.5318V13.8669C143.586 12.8813 144.412 12.0788 145.427 12.0788H157.89C158.667 12.0788 159.297 11.4672 159.297 10.7125C159.297 9.95778 158.667 9.34619 157.89 9.34619H145.427C142.861 9.34619 140.774 11.3743 140.774 13.8669V15.5318C140.774 18.0247 142.861 20.0528 145.427 20.0528H150.387H155.347C156.362 20.0528 157.188 20.855 157.188 21.8406V23.5056C157.188 24.4915 156.362 25.2936 155.347 25.2936H142.18C141.403 25.2936 140.774 25.9055 140.774 26.6598C140.774 27.4147 141.403 28.0265 142.18 28.0265H155.347C157.913 28.0265 160 25.9984 160 23.5056V21.8406C160 19.3479 157.913 17.3199 155.347 17.3199Z" fill="#EEEEF0"/>
<path d="M134.304 23.5055C134.304 24.4914 133.479 25.2936 132.464 25.2936H122.543C121.529 25.2936 120.703 24.4914 120.703 23.5055V13.8669C120.703 12.8809 121.529 12.0788 122.543 12.0788H132.464C133.479 12.0788 134.304 12.8809 134.304 13.8669V23.5055ZM132.464 9.34619H122.543C119.978 9.34619 117.891 11.3743 117.891 13.8669V23.5055C117.891 25.9985 119.978 28.0261 122.543 28.0261H132.464C135.03 28.0261 137.117 25.9985 137.117 23.5055V13.8669C137.117 11.3743 135.03 9.34619 132.464 9.34619Z" fill="#EEEEF0"/>
<path d="M111.421 23.5055C111.421 24.4914 110.596 25.2936 109.581 25.2936H97.82V20.0524H109.581C110.596 20.0524 111.421 20.8546 111.421 21.8405V23.5055ZM111.421 13.8669V15.5318C111.421 16.5177 110.596 17.3199 109.581 17.3199H97.82V12.0788H109.581C110.596 12.0788 111.421 12.8809 111.421 13.8669ZM109.581 9.34619H96.4137C96.171 9.34619 95.9428 9.40584 95.7436 9.5111C95.6637 9.55321 95.5886 9.60233 95.5192 9.65812C95.4498 9.7139 95.386 9.77566 95.3286 9.84338C95.1278 10.0795 95.0076 10.3823 95.0076 10.7125V26.6599C95.0076 27.1788 95.3052 27.6301 95.7436 27.8617C95.9428 27.9666 96.171 28.0261 96.4137 28.0261H109.581C112.147 28.0261 114.234 25.9985 114.234 23.5055V21.8405C114.234 20.6145 113.728 19.5013 112.909 18.6862C113.728 17.8712 114.234 16.7578 114.234 15.5318V13.8669C114.234 11.3743 112.147 9.34619 109.581 9.34619Z" fill="#EEEEF0"/>
<path d="M89.9446 9.34607C89.1679 9.34607 88.5385 9.958 88.5385 10.7124V23.5054C88.5385 24.4913 87.7129 25.2934 86.6982 25.2934H76.7777C75.7629 25.2934 74.9373 24.4913 74.9373 23.5054V10.7124C74.9373 9.958 74.3079 9.34607 73.531 9.34607C72.7542 9.34607 72.1245 9.958 72.1245 10.7124V23.5054C72.1245 25.9984 74.2118 28.0265 76.7777 28.0265H86.6982C89.2635 28.0265 91.351 25.9984 91.351 23.5054V10.7124C91.351 9.958 90.7216 9.34607 89.9446 9.34607Z" fill="#EEEEF0"/>
<path d="M53.8945 12.0789H67.0617C67.8384 12.0789 68.4678 11.4673 68.4678 10.7126C68.4678 9.95788 67.8384 9.34595 67.0617 9.34595H53.8945C51.3291 9.34595 49.2417 11.374 49.2417 13.867V23.5055C49.2417 25.9982 51.3291 28.0263 53.8945 28.0263H67.0617C67.8384 28.0263 68.4678 27.4148 68.4678 26.6599C68.4678 25.9052 67.8384 25.2937 67.0617 25.2937H53.8945C52.8798 25.2937 52.0542 24.4916 52.0542 23.5055V13.867C52.0542 12.881 52.8798 12.0789 53.8945 12.0789Z" fill="#EEEEF0"/>
<path d="M2.8129 9.04775C2.8129 6.32249 5.09492 4.1053 7.89986 4.1053H27.7406C30.5457 4.1053 32.8276 6.32249 32.8276 9.04775V28.325C32.8276 31.0502 30.5457 33.2675 27.7406 33.2675H7.89986C5.09492 33.2675 2.8129 31.0502 2.8129 28.325V9.04775ZM7.89986 36H27.7406C32.0967 36 35.6406 32.5573 35.6406 28.325V9.04775C35.6406 4.81548 32.0967 1.37231 27.7406 1.37231H7.89986C3.54383 1.37231 0 4.81548 0 9.04775V28.325C0 32.5573 3.54383 36 7.89986 36Z" fill="#EEEEF0"/>
</g>
<defs>
<clipPath id="clip0_3204_344">
<rect width="160" height="36" fill="white"/>
</clipPath>
</defs>
</svg>
